# xmcd
#
# Track frame offsets:
#	150
#	17588
#	32058
#	45761
#	58372
#	86960
#	96084
#	115510
#	135873
#	148041
#	171621
#	191332
#	208508
#	242777
#	270422
#	298533
#	315528
#	329401
#
# Disc length: 4749 seconds
#
# Revision: 1
# Processed by: cddbd v1.5.1PL2 Copyright (c) Steve Scherf et al.
# Submitted via: EasyCDDAExtractor 9.0.0.1
#
DISCID=fc128b12
DTITLE=Breakout - Blues
DYEAR=2003
DGENRE=Blues
TTITLE0=PRZYSZEDL DO MNIE BLUES
TTITLE1=KIEDY BYLEM MALYM CHLOPCEM
TTITLE2=ONI ZARAZ PRZYJDA TU
TTITLE3=POMALUJ MOJE SNY
TTITLE4=CO STALO SIE KWIATOM
TTITLE5=PRZYSZLA DO MNIE BIEDA
TTITLE6=DAJE CI PROG
TTITLE7=NOCA PUKA KTOS
TTITLE8=POWIEDZMY TO
TTITLE9=RZEKA DZIECINSTWA
TTITLE10=JEST GDZIES TAKI DOM
TTITLE11=KOLO MEGO OKNA
TTITLE12=MODLITWA
TTITLE13=NA WYSOKA WCHODZE GORE
TTITLE14=MUSISZ KLAMSTWEM KARMIC ICH
TTITLE15=SLUCHAJ RYTMU
TTITLE16=POZEGNALNY BLUES
TTITLE17=W CIENIU BLUESA
EXTD=
EXTT0=
EXTT1=
EXTT2=
EXTT3=
EXTT4=
EXTT5=
EXTT6=
EXTT7=
EXTT8=
EXTT9=
EXTT10=
EXTT11=
EXTT12=
EXTT13=
EXTT14=
EXTT15=
EXTT16=
EXTT17=
PLAYORDER=
